<svg width="13" height="16" viewBox="0 0 13 16" fill="none" xmlns="http://www.w3.org/2000/svg">
<path d="M6.67676 3.49121C6.40332 3.49121 6.15267 3.42513 5.9248 3.29297C5.7015 3.16081 5.52148 2.98307 5.38477 2.75977C5.2526 2.5319 5.18652 2.28125 5.18652 2.00781C5.18652 1.72982 5.2526 1.47917 5.38477 1.25586C5.52148 1.02799 5.7015 0.847982 5.9248 0.71582C6.15267 0.583659 6.40332 0.517578 6.67676 0.517578C6.9502 0.517578 7.19857 0.583659 7.42188 0.71582C7.64974 0.847982 7.82975 1.02799 7.96191 1.25586C8.09863 1.47917 8.16699 1.72982 8.16699 2.00781C8.16699 2.28125 8.09863 2.5319 7.96191 2.75977C7.82975 2.98307 7.64974 3.16081 7.42188 3.29297C7.19857 3.42513 6.9502 3.49121 6.67676 3.49121ZM6.67676 9.91016C6.53548 9.91016 6.42839 9.96257 6.35547 10.0674C6.28255 10.1722 6.20736 10.3477 6.12988 10.5938C6.08431 10.7305 6.02279 10.9424 5.94531 11.2295C5.86784 11.5166 5.78353 11.8402 5.69238 12.2002C5.60124 12.5557 5.50781 12.9157 5.41211 13.2803C5.32096 13.6449 5.23665 13.9775 5.15918 14.2783C5.08171 14.5837 5.02018 14.8206 4.97461 14.9893C4.86523 15.3903 4.64648 15.5908 4.31836 15.5908C4.09961 15.5908 3.93099 15.5065 3.8125 15.3379C3.69857 15.1693 3.6735 14.9779 3.7373 14.7637C3.74642 14.7318 3.77604 14.6042 3.82617 14.3809C3.88086 14.1576 3.94922 13.875 4.03125 13.5332C4.11328 13.1914 4.19987 12.8223 4.29102 12.4258C4.38672 12.0293 4.47559 11.6419 4.55762 11.2637C4.64421 10.8809 4.7194 10.5413 4.7832 10.2451C4.84701 9.94434 4.8903 9.72331 4.91309 9.58203C4.94954 9.36328 4.97689 9.0944 4.99512 8.77539C5.0179 8.45638 5.03385 8.12826 5.04297 7.79102C5.05208 7.45378 5.05664 7.14388 5.05664 6.86133C5.0612 6.57422 5.06348 6.35775 5.06348 6.21191C5.05892 6.00684 5.00879 5.84049 4.91309 5.71289C4.82194 5.58073 4.69206 5.4987 4.52344 5.4668C4.45964 5.45312 4.31836 5.43262 4.09961 5.40527C3.88086 5.37337 3.62565 5.33919 3.33398 5.30273C3.04232 5.26172 2.75065 5.2207 2.45898 5.17969C2.16732 5.13867 1.90755 5.10221 1.67969 5.07031C1.45638 5.03841 1.30827 5.01335 1.23535 4.99512C1.08496 4.96322 0.964193 4.88802 0.873047 4.76953C0.786458 4.65104 0.743164 4.51204 0.743164 4.35254C0.743164 4.15658 0.802409 4.00163 0.920898 3.8877C1.04395 3.77376 1.17839 3.7168 1.32422 3.7168C1.37891 3.7168 1.43359 3.72363 1.48828 3.7373C1.54753 3.74642 1.60677 3.75781 1.66602 3.77148C1.9349 3.82617 2.26758 3.87858 2.66406 3.92871C3.0651 3.97884 3.49805 4.02669 3.96289 4.07227C4.42773 4.11328 4.89486 4.14746 5.36426 4.1748C5.83366 4.19759 6.27116 4.20898 6.67676 4.20898C7.08691 4.20898 7.52669 4.19531 7.99609 4.16797C8.46549 4.14062 8.93034 4.10645 9.39062 4.06543C9.85547 4.01986 10.2861 3.97201 10.6826 3.92188C11.0837 3.87174 11.4186 3.82161 11.6875 3.77148C11.7513 3.75781 11.8105 3.74642 11.8652 3.7373C11.9199 3.72363 11.9769 3.7168 12.0361 3.7168C12.1774 3.7168 12.3096 3.77376 12.4326 3.8877C12.5557 4.00163 12.6172 4.15658 12.6172 4.35254C12.6172 4.51204 12.5716 4.64876 12.4805 4.7627C12.3893 4.87207 12.2686 4.94954 12.1182 4.99512C12.0498 5.0179 11.904 5.04753 11.6807 5.08398C11.4574 5.11589 11.1976 5.15234 10.9014 5.19336C10.6097 5.22982 10.3158 5.26628 10.0195 5.30273C9.72786 5.33919 9.47266 5.37337 9.25391 5.40527C9.03516 5.43262 8.89388 5.45312 8.83008 5.4668C8.66146 5.50326 8.53158 5.58529 8.44043 5.71289C8.34928 5.84049 8.30371 6.00684 8.30371 6.21191C8.30371 6.35775 8.30371 6.57422 8.30371 6.86133C8.30827 7.14388 8.31283 7.45378 8.31738 7.79102C8.3265 8.12826 8.34017 8.45638 8.3584 8.77539C8.37663 9.0944 8.40397 9.36328 8.44043 9.58203C8.45866 9.72331 8.49967 9.94434 8.56348 10.2451C8.62728 10.5413 8.70247 10.8809 8.78906 11.2637C8.87565 11.6419 8.96452 12.0293 9.05566 12.4258C9.14681 12.8223 9.2334 13.1914 9.31543 13.5332C9.39746 13.875 9.46582 14.1576 9.52051 14.3809C9.5752 14.6042 9.6071 14.7318 9.61621 14.7637C9.67546 14.9779 9.64811 15.1693 9.53418 15.3379C9.42025 15.5065 9.25391 15.5908 9.03516 15.5908C8.69336 15.5908 8.47689 15.3903 8.38574 14.9893C8.34473 14.8206 8.28548 14.5837 8.20801 14.2783C8.13509 13.973 8.05078 13.638 7.95508 13.2734C7.86393 12.9089 7.77051 12.5465 7.6748 12.1865C7.58366 11.8265 7.49935 11.5052 7.42188 11.2227C7.3444 10.9401 7.28288 10.7305 7.2373 10.5938C7.16439 10.3431 7.08691 10.1676 7.00488 10.0674C6.92741 9.96257 6.81803 9.91016 6.67676 9.91016Z" fill="black"/>
</svg>
