<svg width="17" height="16" viewBox="0 0 17 16" fill="none" xmlns="http://www.w3.org/2000/svg">
<path d="M8.61816 2.9375C8.37207 2.9375 8.16016 2.83952 7.98242 2.64355C7.80924 2.44759 7.72266 2.20605 7.72266 1.91895C7.72266 1.61361 7.77051 1.35612 7.86621 1.14648C7.96647 0.932292 8.09863 0.724935 8.2627 0.524414C8.37207 0.405924 8.49512 0.348958 8.63184 0.353516C8.76855 0.358073 8.8916 0.428711 9.00098 0.56543C9.16504 0.756836 9.29036 0.957357 9.37695 1.16699C9.4681 1.37663 9.51367 1.62728 9.51367 1.91895C9.51367 2.20605 9.42708 2.44759 9.25391 2.64355C9.08073 2.83952 8.86882 2.9375 8.61816 2.9375ZM8.22852 6.08887V2.20605H8.9873V6.08887H8.22852ZM4.1543 9.43164V7.72266C4.1543 7.04818 4.32747 6.54004 4.67383 6.19824C5.02474 5.85189 5.54199 5.67871 6.22559 5.67871H11.0107C11.6943 5.67871 12.2093 5.85189 12.5557 6.19824C12.9066 6.54004 13.082 7.04818 13.082 7.72266V9.43164H11.9814V7.77734C11.9814 7.45378 11.8949 7.20768 11.7217 7.03906C11.5485 6.86589 11.3047 6.7793 10.9902 6.7793H6.23926C5.92936 6.7793 5.68783 6.86589 5.51465 7.03906C5.34147 7.20768 5.25488 7.45378 5.25488 7.77734V9.43164H4.1543ZM1.82324 15.3584V11.1748C1.82324 10.5003 1.99642 9.99219 2.34277 9.65039C2.69368 9.30404 3.21094 9.13086 3.89453 9.13086H13.3418C14.0254 9.13086 14.5404 9.30404 14.8867 9.65039C15.2331 9.99219 15.4062 10.5003 15.4062 11.1748V15.3584H14.3057V11.2363C14.3057 10.9082 14.2191 10.6598 14.0459 10.4912C13.8727 10.318 13.6312 10.2314 13.3213 10.2314H3.9082C3.59831 10.2314 3.35677 10.318 3.18359 10.4912C3.01042 10.6598 2.92383 10.9082 2.92383 11.2363V15.3584H1.82324ZM8.61133 12.5693C8.46094 12.5693 8.3151 12.6081 8.17383 12.6855C8.03255 12.763 7.88216 12.8519 7.72266 12.9521C7.56771 13.0524 7.39453 13.1413 7.20312 13.2188C7.01172 13.2962 6.79069 13.335 6.54004 13.335C6.29395 13.335 6.07975 13.2962 5.89746 13.2188C5.71517 13.1413 5.54883 13.0524 5.39844 12.9521C5.2526 12.8519 5.11361 12.763 4.98145 12.6855C4.84928 12.6081 4.71484 12.5693 4.57812 12.5693C4.43685 12.5693 4.30013 12.6081 4.16797 12.6855C4.03581 12.763 3.89225 12.8519 3.7373 12.9521C3.58236 13.0524 3.4069 13.1413 3.21094 13.2188C3.01497 13.2962 2.78483 13.335 2.52051 13.335H2.29492V12.2686H2.52051C2.68001 12.2686 2.83268 12.2298 2.97852 12.1523C3.12891 12.0749 3.28158 11.986 3.43652 11.8857C3.59147 11.7855 3.76009 11.6966 3.94238 11.6191C4.12923 11.5417 4.34115 11.5029 4.57812 11.5029C4.8151 11.5029 5.02018 11.5417 5.19336 11.6191C5.37109 11.6966 5.5306 11.7855 5.67188 11.8857C5.81315 11.986 5.95215 12.0749 6.08887 12.1523C6.22559 12.2298 6.37598 12.2686 6.54004 12.2686C6.736 12.2686 6.90918 12.2298 7.05957 12.1523C7.20996 12.0749 7.35807 11.986 7.50391 11.8857C7.64974 11.7855 7.80924 11.6966 7.98242 11.6191C8.16016 11.5417 8.36979 11.5029 8.61133 11.5029C8.85286 11.5029 9.06022 11.5417 9.2334 11.6191C9.40658 11.6966 9.56608 11.7855 9.71191 11.8857C9.85775 11.986 10.0059 12.0749 10.1562 12.1523C10.3112 12.2298 10.4867 12.2686 10.6826 12.2686C10.8467 12.2686 10.9971 12.2298 11.1338 12.1523C11.2705 12.0749 11.4095 11.986 11.5508 11.8857C11.6921 11.7855 11.8493 11.6966 12.0225 11.6191C12.2002 11.5417 12.4076 11.5029 12.6445 11.5029C12.8815 11.5029 13.0911 11.5417 13.2734 11.6191C13.4603 11.6966 13.6312 11.7855 13.7861 11.8857C13.9411 11.986 14.0915 12.0749 14.2373 12.1523C14.3831 12.2298 14.5381 12.2686 14.7021 12.2686H14.8867V13.335H14.7021C14.4378 13.335 14.2054 13.2962 14.0049 13.2188C13.8089 13.1413 13.6335 13.0524 13.4785 12.9521C13.3281 12.8519 13.1846 12.763 13.0479 12.6855C12.9157 12.6081 12.7812 12.5693 12.6445 12.5693C12.5033 12.5693 12.3665 12.6081 12.2344 12.6855C12.1022 12.763 11.9632 12.8519 11.8174 12.9521C11.6715 13.0524 11.5052 13.1413 11.3184 13.2188C11.1361 13.2962 10.9242 13.335 10.6826 13.335C10.432 13.335 10.2087 13.2962 10.0127 13.2188C9.82129 13.1413 9.64811 13.0524 9.49316 12.9521C9.33822 12.8519 9.1901 12.763 9.04883 12.6855C8.90755 12.6081 8.76172 12.5693 8.61133 12.5693ZM1.29004 15.8369C1.13965 15.8369 1.00977 15.7822 0.900391 15.6729C0.795573 15.5635 0.743164 15.4336 0.743164 15.2832C0.743164 15.1328 0.795573 15.0029 0.900391 14.8936C1.00977 14.7887 1.13965 14.7363 1.29004 14.7363H15.9395C16.0898 14.7363 16.2174 14.7887 16.3223 14.8936C16.4316 15.0029 16.4863 15.1328 16.4863 15.2832C16.4863 15.4336 16.4316 15.5635 16.3223 15.6729C16.2174 15.7822 16.0898 15.8369 15.9395 15.8369H1.29004Z" fill="black"/>
</svg>
