<svg width="23" height="23" viewBox="0 0 23 23" fill="none" xmlns="http://www.w3.org/2000/svg">
<path d="M6.26172 12.4043C6.04688 12.4043 5.86784 12.3327 5.72461 12.1895C5.58138 12.0462 5.50977 11.8672 5.50977 11.6523C5.50977 11.4447 5.58138 11.2692 5.72461 11.126C5.86784 10.9827 6.04688 10.9111 6.26172 10.9111H11.1279V4.41211C11.1279 4.20443 11.1995 4.02897 11.3428 3.88574C11.486 3.74251 11.6615 3.6709 11.8691 3.6709C12.084 3.6709 12.263 3.74251 12.4062 3.88574C12.5495 4.02897 12.6211 4.20443 12.6211 4.41211V11.6523C12.6211 11.8672 12.5495 12.0462 12.4062 12.1895C12.263 12.3327 12.084 12.4043 11.8691 12.4043H6.26172ZM11.8799 22.2012C10.3831 22.2012 8.97233 21.9147 7.64746 21.3418C6.32975 20.7689 5.16602 19.9775 4.15625 18.9678C3.14648 17.958 2.35514 16.7943 1.78223 15.4766C1.20931 14.1517 0.922852 12.7409 0.922852 11.2441C0.922852 9.7474 1.20931 8.34017 1.78223 7.02246C2.35514 5.69759 3.1429 4.53027 4.14551 3.52051C5.15527 2.51074 6.31901 1.7194 7.63672 1.14648C8.96159 0.573568 10.3724 0.287109 11.8691 0.287109C13.3659 0.287109 14.7767 0.573568 16.1016 1.14648C17.4264 1.7194 18.5938 2.51074 19.6035 3.52051C20.6133 4.53027 21.4046 5.69759 21.9775 7.02246C22.5505 8.34017 22.8369 9.7474 22.8369 11.2441C22.8369 12.7409 22.5505 14.1517 21.9775 15.4766C21.4046 16.7943 20.6133 17.958 19.6035 18.9678C18.5938 19.9775 17.4264 20.7689 16.1016 21.3418C14.7839 21.9147 13.3766 22.2012 11.8799 22.2012ZM11.8799 20.375C13.1475 20.375 14.3327 20.1387 15.4355 19.666C16.5384 19.1934 17.5088 18.5417 18.3467 17.7109C19.1846 16.873 19.8363 15.9027 20.3018 14.7998C20.7744 13.6969 21.0107 12.5117 21.0107 11.2441C21.0107 9.97656 20.7744 8.79134 20.3018 7.68848C19.8291 6.58561 19.1738 5.61523 18.3359 4.77734C17.5052 3.93945 16.5348 3.28776 15.4248 2.82227C14.3219 2.34961 13.1367 2.11328 11.8691 2.11328C10.6016 2.11328 9.41634 2.34961 8.31348 2.82227C7.21061 3.28776 6.24382 3.93945 5.41309 4.77734C4.58236 5.61523 3.93066 6.58561 3.45801 7.68848C2.99251 8.79134 2.75977 9.97656 2.75977 11.2441C2.75977 12.5117 2.99251 13.6969 3.45801 14.7998C3.93066 15.9027 4.58236 16.873 5.41309 17.7109C6.25098 18.5417 7.22135 19.1934 8.32422 19.666C9.42708 20.1387 10.6123 20.375 11.8799 20.375Z" fill="#55C360"/>
</svg>
