<svg width="18" height="20" viewBox="0 0 18 20" fill="none" xmlns="http://www.w3.org/2000/svg">
<g clip-path="url(#clip0_183_640)">
<path d="M5.20829 5.95125H6.47621C6.79496 5.95125 6.95079 5.56875 6.72413 5.34917L4.74788 3.38C4.68023 3.31515 4.59013 3.27895 4.49642 3.27895C4.4027 3.27895 4.31261 3.31515 4.24496 3.38L2.27579 5.34917C2.04913 5.56875 2.20496 5.95125 2.52371 5.95125H3.79163V13.0488H2.52371C2.20496 13.0488 2.04913 13.4313 2.27579 13.6508L4.25204 15.62C4.39371 15.7546 4.61329 15.7546 4.75496 15.62L6.73121 13.6508C6.95788 13.4313 6.79496 13.0488 6.48329 13.0488H5.20829V5.95125Z" fill="black"/>
<path d="M8.74316 11.6025V8.66309C8.74316 8.15723 8.8571 7.71745 9.08496 7.34375C9.31738 6.96549 9.63639 6.67383 10.042 6.46875C10.4521 6.25911 10.9284 6.1543 11.4707 6.1543H12.4551C12.9974 6.1543 13.4714 6.25911 13.877 6.46875C14.2871 6.67383 14.6061 6.96549 14.834 7.34375C15.0664 7.71745 15.1826 8.15723 15.1826 8.66309V11.6025C15.1826 11.7757 15.1234 11.9215 15.0049 12.04C14.8864 12.154 14.7428 12.2109 14.5742 12.2109C14.4056 12.2109 14.262 12.154 14.1436 12.04C14.0296 11.9215 13.9727 11.7757 13.9727 11.6025V8.9707C13.9727 8.82487 13.8975 8.75195 13.7471 8.75195C13.6012 8.75195 13.5283 8.82487 13.5283 8.9707V16.9414C13.5283 17.1283 13.4622 17.2855 13.3301 17.4131C13.2025 17.5407 13.0452 17.6045 12.8584 17.6045C12.6715 17.6045 12.5143 17.5407 12.3867 17.4131C12.2591 17.2855 12.1953 17.1283 12.1953 16.9414V12.0947C12.1953 12.0309 12.1725 11.9762 12.127 11.9307C12.0814 11.8851 12.0267 11.8623 11.9629 11.8623C11.8991 11.8623 11.8444 11.8851 11.7988 11.9307C11.7578 11.9762 11.7373 12.0309 11.7373 12.0947V16.9414C11.7373 17.1283 11.6712 17.2855 11.5391 17.4131C11.4115 17.5407 11.2542 17.6045 11.0674 17.6045C10.8805 17.6045 10.721 17.5407 10.5889 17.4131C10.4613 17.2855 10.3975 17.1283 10.3975 16.9414V8.9707C10.3975 8.82487 10.3245 8.75195 10.1787 8.75195C10.0283 8.75195 9.95312 8.82487 9.95312 8.9707V11.6025C9.95312 11.7757 9.89388 11.9215 9.77539 12.04C9.66146 12.154 9.52018 12.2109 9.35156 12.2109C9.18294 12.2109 9.03939 12.154 8.9209 12.04C8.80241 11.9215 8.74316 11.7757 8.74316 11.6025ZM11.9629 5.36816C11.6895 5.36816 11.4388 5.30208 11.2109 5.16992C10.9876 5.0332 10.8076 4.85319 10.6709 4.62988C10.5387 4.40202 10.4727 4.15137 10.4727 3.87793C10.4727 3.59993 10.5387 3.34928 10.6709 3.12598C10.8076 2.90267 10.9876 2.72493 11.2109 2.59277C11.4388 2.45605 11.6895 2.3877 11.9629 2.3877C12.2363 2.3877 12.4847 2.45605 12.708 2.59277C12.9359 2.72493 13.1159 2.90267 13.248 3.12598C13.3848 3.34928 13.4531 3.59993 13.4531 3.87793C13.4531 4.15137 13.3848 4.40202 13.248 4.62988C13.1159 4.85319 12.9359 5.0332 12.708 5.16992C12.4847 5.30208 12.2363 5.36816 11.9629 5.36816Z" fill="black"/>
</g>
<defs>
<clipPath id="clip0_183_640">
<rect width="18" height="20" fill="white"/>
</clipPath>
</defs>
</svg>
