<svg width="23" height="19" viewBox="0 0 23 19" fill="none" xmlns="http://www.w3.org/2000/svg">
<path d="M8.26497 18.1182C7.50325 18.1182 6.92903 17.9248 6.54231 17.5381C6.15559 17.1572 5.96223 16.5771 5.96223 15.7979L8.81868 13.2842C8.98274 13.1494 9.1468 13.0469 9.31087 12.9766C9.47493 12.9062 9.63899 12.8711 9.80305 12.8711C9.9847 12.8711 10.1634 12.9062 10.3392 12.9766C10.515 13.041 10.6849 13.1494 10.849 13.3018L12.2288 14.5498L15.6917 11.4824C15.8675 11.3242 16.0491 11.21 16.2366 11.1396C16.4241 11.0693 16.6263 11.0342 16.8431 11.0342C17.0482 11.0342 17.2474 11.0723 17.4408 11.1484C17.64 11.2246 17.8245 11.3389 17.9945 11.4912L22.0726 15.3232V15.8154C22.0726 16.5889 21.8763 17.166 21.4837 17.5469C21.097 17.9277 20.5257 18.1182 19.7699 18.1182H8.26497ZM11.6488 11.6758C11.1331 11.6758 10.6966 11.4941 10.3392 11.1309C9.98177 10.7617 9.80305 10.3223 9.80305 9.8125C9.80305 9.31445 9.98177 8.88379 10.3392 8.52051C10.6966 8.15137 11.1331 7.9668 11.6488 7.9668C11.9827 7.9668 12.2874 8.05176 12.5628 8.22168C12.8441 8.3916 13.0667 8.61719 13.2308 8.89844C13.4007 9.17969 13.4857 9.48438 13.4857 9.8125C13.4857 10.3223 13.304 10.7617 12.9408 11.1309C12.5833 11.4941 12.1527 11.6758 11.6488 11.6758ZM3.60677 14.5938C2.65755 14.5938 1.93977 14.3535 1.45345 13.873C0.967117 13.3926 0.723953 12.6807 0.723953 11.7373V3.3877C0.723953 2.4502 0.967117 1.74121 1.45345 1.26074C1.93977 0.774414 2.65755 0.53125 3.60677 0.53125H15.6038C16.5531 0.53125 17.2708 0.774414 17.7572 1.26074C18.2493 1.74121 18.4954 2.4502 18.4954 3.3877V5.37402H16.764V3.5459C16.764 3.11816 16.6527 2.79883 16.43 2.58789C16.2132 2.37109 15.9027 2.2627 15.4984 2.2627H3.71223C3.30208 2.2627 2.9886 2.37109 2.7718 2.58789C2.56087 2.79883 2.4554 3.11816 2.4554 3.5459V11.5967C2.4554 12.0186 2.56087 12.3379 2.7718 12.5547C2.9886 12.7656 3.30208 12.8711 3.71223 12.8711H5.91829V14.5938H3.60677ZM8.05403 18.7773C7.10481 18.7773 6.38704 18.5342 5.90071 18.0479C5.41438 17.5674 5.17122 16.8584 5.17122 15.9209V7.57129C5.17122 6.62793 5.41438 5.91602 5.90071 5.43555C6.38704 4.95508 7.10481 4.71484 8.05403 4.71484H20.0511C20.9945 4.71484 21.7093 4.95801 22.1956 5.44434C22.6878 5.9248 22.9339 6.63379 22.9339 7.57129V15.9209C22.9339 16.8584 22.6878 17.5674 22.1956 18.0479C21.7093 18.5342 20.9945 18.7773 20.0511 18.7773H8.05403ZM8.1595 17.0459H19.9368C20.3411 17.0459 20.6546 16.9404 20.8773 16.7295C21.0999 16.5186 21.2113 16.1992 21.2113 15.7715V7.7207C21.2113 7.29297 21.0999 6.97363 20.8773 6.7627C20.6546 6.5459 20.3411 6.4375 19.9368 6.4375H8.1595C7.74934 6.4375 7.43587 6.5459 7.21907 6.7627C7.00227 6.97363 6.89388 7.29297 6.89388 7.7207V15.7715C6.89388 16.1992 7.00227 16.5186 7.21907 16.7295C7.43587 16.9404 7.74934 17.0459 8.1595 17.0459Z" fill="#999999"/>
</svg>
