<svg width="16" height="24" viewBox="0 0 16 24" fill="none" xmlns="http://www.w3.org/2000/svg">
<path d="M2.5332 23.3408C2.32552 23.5915 2.08561 23.7168 1.81348 23.7168C1.5485 23.724 1.31217 23.6416 1.10449 23.4697C0.89681 23.2979 0.771484 23.0758 0.728516 22.8037C0.692708 22.5316 0.80013 22.2451 1.05078 21.9443L4.24121 18.1631L4.76758 15.7354L6.49707 17.9053L6.26074 18.6357C6.19629 18.8291 6.13542 18.9759 6.07812 19.0762C6.02799 19.1693 5.92415 19.3089 5.7666 19.4951L2.5332 23.3408ZM10.3965 23.0186L8.15137 18.4639C8.1084 18.3779 8.06901 18.2992 8.0332 18.2275C7.9974 18.1488 7.92578 18.0413 7.81836 17.9053L5.6377 15.1768C5.22949 14.6683 4.94661 14.2279 4.78906 13.8555C4.63867 13.4759 4.58854 12.9889 4.63867 12.3945L4.81055 10.042C4.81771 9.89876 4.74609 9.7985 4.5957 9.74121C4.45247 9.67676 4.30924 9.70898 4.16602 9.83789L3.38184 10.5469L3.13477 13.3291C3.11328 13.6729 3.01302 13.9307 2.83398 14.1025C2.65495 14.2744 2.41504 14.3496 2.11426 14.3281C1.82064 14.3138 1.59147 14.2064 1.42676 14.0059C1.26204 13.7982 1.19401 13.5332 1.22266 13.2109L1.41602 10.6758C1.44466 10.3249 1.5127 10.0277 1.62012 9.78418C1.72754 9.54069 1.91374 9.28646 2.17871 9.02148L3.82227 7.39941C4.34505 6.89095 4.82487 6.50065 5.26172 6.22852C5.69857 5.94922 6.19987 5.80957 6.76562 5.80957C7.52474 5.80957 8.10482 6.06022 8.50586 6.56152C8.91406 7.05566 9.0931 7.66797 9.04297 8.39844L8.82812 11.5029C8.78516 12.0544 8.7207 12.5342 8.63477 12.9424C8.54883 13.3506 8.41634 13.834 8.2373 14.3926L8.14062 14.6826L9.52637 16.6484C9.62663 16.7917 9.73047 16.9528 9.83789 17.1318C9.94531 17.3037 10.042 17.472 10.1279 17.6367L12.3193 22.0732C12.4984 22.4385 12.5342 22.7536 12.4268 23.0186C12.3193 23.2907 12.1367 23.484 11.8789 23.5986C11.6211 23.7132 11.349 23.7275 11.0625 23.6416C10.7832 23.5628 10.5612 23.3551 10.3965 23.0186ZM14.1348 9.99902C14.457 9.99902 14.7148 10.0885 14.9082 10.2676C15.1087 10.4466 15.209 10.6794 15.209 10.9658C15.209 11.2666 15.1087 11.5029 14.9082 11.6748C14.7148 11.8467 14.457 11.9326 14.1348 11.9326H11.8252C11.5029 11.9326 11.2487 11.9004 11.0625 11.8359C10.8835 11.7715 10.708 11.6533 10.5361 11.4814L9.91309 10.8584L10.0957 8.26953L11.6533 9.99902H14.1348ZM7.96875 4.84277C7.5319 4.84277 7.13444 4.73893 6.77637 4.53125C6.42546 4.31641 6.14616 4.03353 5.93848 3.68262C5.73079 3.32454 5.62695 2.93066 5.62695 2.50098C5.62695 2.06413 5.73079 1.67025 5.93848 1.31934C6.14616 0.961263 6.42546 0.678385 6.77637 0.470703C7.13444 0.263021 7.5319 0.15918 7.96875 0.15918C8.39844 0.15918 8.78874 0.263021 9.13965 0.470703C9.49772 0.678385 9.7806 0.961263 9.98828 1.31934C10.196 1.67025 10.2998 2.06413 10.2998 2.50098C10.2998 2.93066 10.196 3.32454 9.98828 3.68262C9.7806 4.03353 9.49772 4.31641 9.13965 4.53125C8.78874 4.73893 8.39844 4.84277 7.96875 4.84277Z" fill="#C35555"/>
</svg>
