<svg width="16" height="24" viewBox="0 0 16 24" fill="none" xmlns="http://www.w3.org/2000/svg">
<path d="M0.265625 12.3418V10.1611C0.265625 9.93913 0.344401 9.74935 0.501953 9.5918C0.659505 9.43424 0.849284 9.35547 1.07129 9.35547C1.30046 9.35547 1.49382 9.43424 1.65137 9.5918C1.80892 9.74935 1.8877 9.93913 1.8877 10.1611V12.2773C1.8877 13.4948 2.13835 14.5618 2.63965 15.4785C3.14095 16.3952 3.84635 17.1077 4.75586 17.6162C5.66536 18.1175 6.73242 18.3682 7.95703 18.3682C9.18164 18.3682 10.2451 18.1175 11.1475 17.6162C12.057 17.1077 12.7624 16.3952 13.2637 15.4785C13.765 14.5618 14.0156 13.4948 14.0156 12.2773V10.1611C14.0156 9.93913 14.0944 9.74935 14.252 9.5918C14.4095 9.43424 14.6029 9.35547 14.832 9.35547C15.054 9.35547 15.2438 9.43424 15.4014 9.5918C15.5589 9.74935 15.6377 9.93913 15.6377 10.1611V12.3418C15.6377 13.7454 15.3477 14.9915 14.7676 16.0801C14.1947 17.1686 13.3926 18.0423 12.3613 18.7012C11.3301 19.3529 10.1305 19.736 8.7627 19.8506V22.3535H12.748C12.9772 22.3535 13.1706 22.4323 13.3281 22.5898C13.4857 22.7474 13.5645 22.9408 13.5645 23.1699C13.5645 23.3919 13.4857 23.5817 13.3281 23.7393C13.1706 23.8968 12.9772 23.9756 12.748 23.9756H3.15527C2.92611 23.9756 2.73275 23.8968 2.5752 23.7393C2.41764 23.5817 2.33887 23.3919 2.33887 23.1699C2.33887 22.9408 2.41764 22.7474 2.5752 22.5898C2.73275 22.4323 2.92611 22.3535 3.15527 22.3535H7.14062V19.8506C5.77279 19.736 4.57324 19.3529 3.54199 18.7012C2.51074 18.0423 1.70508 17.1686 1.125 16.0801C0.552083 14.9915 0.265625 13.7454 0.265625 12.3418ZM4.04688 11.9551V5.19824C4.04688 4.37467 4.21159 3.64779 4.54102 3.01758C4.87044 2.38021 5.32878 1.88249 5.91602 1.52441C6.50326 1.16634 7.18359 0.987305 7.95703 0.987305C8.72331 0.987305 9.40007 1.16634 9.9873 1.52441C10.5745 1.88249 11.0329 2.38021 11.3623 3.01758C11.6917 3.64779 11.8564 4.37467 11.8564 5.19824V11.9551C11.8564 12.7786 11.6917 13.5091 11.3623 14.1465C11.0329 14.7767 10.5745 15.2708 9.9873 15.6289C9.40007 15.987 8.72331 16.166 7.95703 16.166C7.18359 16.166 6.50326 15.987 5.91602 15.6289C5.32878 15.2708 4.87044 14.7767 4.54102 14.1465C4.21159 13.5091 4.04688 12.7786 4.04688 11.9551ZM5.66895 11.9551C5.66895 12.75 5.87663 13.3838 6.29199 13.8564C6.71452 14.3291 7.26953 14.5654 7.95703 14.5654C8.64453 14.5654 9.19596 14.3291 9.61133 13.8564C10.0267 13.3838 10.2344 12.75 10.2344 11.9551V5.19824C10.2344 4.40332 10.0267 3.76953 9.61133 3.29688C9.19596 2.82422 8.64453 2.58789 7.95703 2.58789C7.26953 2.58789 6.71452 2.82422 6.29199 3.29688C5.87663 3.76953 5.66895 4.40332 5.66895 5.19824V11.9551Z" fill="#8D8D8D"/>
</svg>
